<svg xmlns="http://www.w3.org/2000/svg" width="70" height="60" viewBox="0 0 70 60"><rect width="100%" height="100%" fill="#DDDDDD"/><path fill="#999999" d="M13.46 25.3h6.49v.7q0 .31-.07.5-.06.19-.13.32l-3.56 7.33q-.11.23-.31.39t-.54.16h-1.16l3.63-7.18q.12-.22.24-.41.12-.18.27-.35h-4.49q-.15 0-.26-.11t-.11-.26zM27.61 30q0 1.23-.27 2.14-.26.9-.73 1.49-.46.6-1.09.88-.64.29-1.37.29-.74 0-1.36-.29-.63-.28-1.09-.88-.46-.59-.72-1.49-.26-.91-.26-2.14t.26-2.14q.26-.9.72-1.49t1.09-.88q.62-.29 1.36-.29.73 0 1.37.29.63.29 1.09.88.47.59.73 1.49.27.91.27 2.14m-1.66 0q0-1.02-.15-1.69t-.4-1.07q-.25-.39-.58-.55-.32-.16-.67-.16t-.67.16-.57.55q-.24.4-.39 1.07T22.37 30t.15 1.69.39 1.07q.25.39.57.55t.67.16.67-.16q.33-.16.58-.55.25-.4.4-1.07t.15-1.69m11.98 2.55-.85.84-2.21-2.21-2.22 2.22-.85-.84 2.22-2.23-2.12-2.12.85-.84 2.12 2.12 2.1-2.11.86.85-2.11 2.11zm10.04-7.25-2.79 3.41-.32.41q.27-.14.59-.21.31-.08.67-.08.54 0 1.04.18.51.17.89.53.38.35.62.88.23.52.23 1.22 0 .66-.24 1.24-.24.57-.68 1-.43.43-1.05.68-.61.24-1.35.24-.76 0-1.35-.24-.6-.24-1.02-.67-.43-.43-.65-1.04t-.22-1.35q0-.66.26-1.36.27-.7.84-1.45l2.24-3.01q.12-.16.34-.27.23-.11.52-.11zm-2.42 8.19q.38 0 .7-.13t.55-.36q.23-.24.36-.55.13-.32.13-.69 0-.4-.12-.72t-.35-.55q-.23-.22-.55-.34-.31-.12-.7-.12-.38 0-.69.13-.32.13-.54.36t-.34.55q-.12.31-.12.68 0 .39.1.71.11.32.32.55t.52.35q.32.13.73.13M56.54 30q0 1.23-.26 2.14-.26.9-.73 1.49-.46.6-1.1.88-.63.29-1.36.29-.74 0-1.37-.29-.62-.28-1.08-.88-.47-.59-.73-1.49-.26-.91-.26-2.14t.26-2.14q.26-.9.73-1.49.46-.59 1.08-.88.63-.29 1.37-.29.73 0 1.36.29.64.29 1.1.88.47.59.73 1.49.26.91.26 2.14m-1.65 0q0-1.02-.15-1.69t-.4-1.07q-.25-.39-.58-.55-.32-.16-.67-.16t-.67.16-.57.55q-.25.4-.39 1.07-.15.67-.15 1.69t.15 1.69q.14.67.39 1.07.25.39.57.55t.67.16.67-.16q.33-.16.58-.55.25-.4.4-1.07t.15-1.69"/></svg>